<mxfile host="app.diagrams.net" modified="2023-11-26T02:14:25.939Z" agent="Mozilla/5.0 (Windows NT 10.0; Win64; x64) AppleWebKit/537.36 (KHTML, like Gecko) Chrome/119.0.0.0 Safari/537.36" version="22.1.4" etag="_Oh6LoQT4iO7amJ4E4AN" type="github">
  <diagram name="PÃ¡gina-1" id="gai0iji7muhxfKvl1AgR">
    <mxGraphModel>
      <root>
        <mxCell id="0" />
        <mxCell id="1" parent="0" />
      </root>
    </mxGraphModel>
  </diagram>
</mxfile>
